<?xml version="1.0" encoding="UTF-8"?>
<svg version="1.1" xmlns="http://www.w3.org/2000/svg" width="2000" height="1500">
<path d="M0 0 C660 0 1320 0 2000 0 C2000 495 2000 990 2000 1500 C1340 1500 680 1500 0 1500 C0 1005 0 510 0 0 Z " fill="#FEFEFE" transform="translate(0,0)"/>
<path d="M0 0 C1.56439586 1.40700237 3.1191289 2.82496936 4.65625 4.26171875 C6.68730785 6.14440387 8.75213216 7.95995756 10.84765625 9.76953125 C21.53192105 19.09119764 31.34900311 29.31348419 40.0625 40.4921875 C40.99961793 41.63136938 41.93993004 42.76792847 42.8828125 43.90234375 C91.03722499 102.18101136 112.5276874 179.49404362 106.59985352 254.33007812 C106.19953143 258.40197532 105.6556269 262.44425659 105.0625 266.4921875 C104.90120605 267.61834473 104.73991211 268.74450195 104.57373047 269.90478516 C102.19711018 286.13759022 99.25875917 301.91772477 94.0625 317.4921875 C93.74297363 318.45898438 93.42344727 319.42578125 93.09423828 320.421875 C81.15469255 356.08736838 63.86820033 388.39074532 40.0625 417.4921875 C39.61890137 418.0402002 39.17530273 418.58821289 38.71826172 419.15283203 C26.70358842 433.91968856 13.20127353 447.92072437 -1.9375 459.4921875 C-3.02166858 460.3632318 -4.10356232 461.23711244 -5.18359375 462.11328125 C-32.66868226 484.29756333 -64.20972384 500.63653993 -97.6875 511.6796875 C-98.47331451 511.94087372 -99.25912903 512.20205994 -100.0687561 512.47116089 C-111.20814514 516.15866036 -122.22362054 519.37953899 -133.84619141 521.15966797 C-135.95480601 521.49493917 -138.04284499 521.89157487 -140.13671875 522.30859375 C-197.75971066 533.64183421 -258.7186425 524.3611103 -311.9375 500.4921875 C-312.72898437 500.13898437 -313.52046875 499.78578125 -314.3359375 499.421875 C-336.97871217 489.23629028 -357.60949386 476.04537909 -376.9375 460.4921875 C-378.47664062 459.26242187 -378.47664062 459.26242187 -380.046875 458.0078125 C-388.05588579 451.44758865 -395.41584331 444.22353052 -402.75 436.9296875 C-403.23805115 436.44690338 -403.72610229 435.96411926 -404.22894287 435.46670532 C-410.92630531 428.82529282 -417.11032622 421.91337713 -422.9375 414.4921875 C-423.47560303 413.81341553 -424.01370605 413.13464355 -424.56811523 412.43530273 C-444.71933785 386.75901824 -459.6053314 358.0373258 -470.9375 327.4921875 C-471.29175049 326.54867432 -471.64600098 325.60516113 -472.01098633 324.63305664 C-474.05550881 319.12080296 -475.89632346 313.62011808 -477.375 307.9296875 C-477.68304565 306.74644897 -477.68304565 306.74644897 -477.99731445 305.53930664 C-479.76308219 298.54793861 -481.23555254 291.50451124 -482.625 284.4296875 C-482.82730225 283.41511475 -483.02960449 282.40054199 -483.23803711 281.35522461 C-486.34338328 265.00850649 -487.28498949 248.91675019 -487.1875 232.3046875 C-487.18439819 231.3609729 -487.18129639 230.4172583 -487.17810059 229.44494629 C-487.12398254 215.38793205 -486.88647925 201.43529766 -484.9375 187.4921875 C-484.81391113 186.58839355 -484.69032227 185.68459961 -484.56298828 184.75341797 C-481.10163301 160.45680173 -474.18778965 137.18513753 -464.9375 114.4921875 C-464.60637207 113.67814453 -464.27524414 112.86410156 -463.93408203 112.02539062 C-453.57420451 86.91755134 -439.08028088 63.52980819 -421.9375 42.4921875 C-421.12152344 41.47253906 -420.30554688 40.45289063 -419.46484375 39.40234375 C-412.90532983 31.38287532 -405.67412587 24.01915624 -398.375 16.6796875 C-397.65082382 15.94761078 -397.65082382 15.94761078 -396.91201782 15.20074463 C-390.27092422 8.50370378 -383.36212755 2.3146775 -375.9375 -3.5078125 C-375.24809326 -4.05123291 -374.55868652 -4.59465332 -373.84838867 -5.15454102 C-340.71115836 -30.97080517 -302.97497444 -49.86675204 -262.12133789 -59.73681641 C-259.76526209 -60.30736218 -257.41348124 -60.89570962 -255.06420898 -61.49365234 C-244.84822122 -64.05369365 -234.72146439 -65.68142065 -224.25 -66.7578125 C-223.4547995 -66.84153107 -222.659599 -66.92524963 -221.84030151 -67.01150513 C-142.90815585 -75.18711416 -60.7277533 -51.84470428 0 0 Z " fill="#000000" transform="translate(1186.9375,344.5078125)"/>
<path d="M0 0 C73.40191281 0 73.40191281 0 92.625 18.1875 C106.66095014 32.85922488 111.41766599 51.53063448 111.3125 71.375 C111.30512817 73.02580566 111.30512817 73.02580566 111.29760742 74.70996094 C111.18418062 82.56723882 110.56401671 89.52419226 108 97 C107.64808594 98.08023437 107.29617188 99.16046875 106.93359375 100.2734375 C101.13329501 116.69804582 91.72985027 128.29515925 76 136 C51.24408556 146.38946845 28.57911885 142 0 142 C0 95.14 0 48.28 0 0 Z " fill="#FEFEFE" transform="translate(977,1063)"/>
<path d="M0 0 C3.48300465 3.59133482 5.36520981 7.64418002 7.22265625 12.21875 C7.52009232 12.93185837 7.81752838 13.64496674 8.12397766 14.37968445 C9.11088299 16.75012505 10.08649585 19.12505263 11.0625 21.5 C11.76617886 23.19479585 12.4707902 24.88920478 13.17626953 26.58325195 C14.29329153 29.26624461 15.40953102 31.94954304 16.52276611 34.6341095 C20.36563955 43.9011098 24.27421593 53.13993105 28.18588257 62.37805176 C35.0749093 78.65429457 41.92445633 94.94704462 48.75 111.25 C49.11841003 112.12957367 49.48682007 113.00914734 49.86639404 113.91537476 C54.61739547 125.26068058 59.33011578 136.62106102 64 148 C66.32712183 145.67287817 67.03714256 143.78344596 68.2590332 140.73095703 C68.70322098 139.62865753 69.14740875 138.52635803 69.60505676 137.39065552 C70.08214584 136.19181732 70.55923492 134.99297913 71.05078125 133.7578125 C71.5511402 132.51127563 72.05197688 131.26493043 72.55326843 130.01876831 C73.87593668 126.7273298 75.1925623 123.43350767 76.5078125 120.13909912 C78.08936833 116.18053111 79.67747191 112.22458719 81.26508617 108.26844597 C82.50468779 105.17933042 83.74286443 102.08967436 84.97810364 98.99880981 C85.43174789 97.86498871 85.88539215 96.7311676 86.3527832 95.56298828 C86.78748932 94.46907776 87.22219543 93.37516724 87.67007446 92.24810791 C88.57051541 90.04894015 89.51057166 87.86565031 90.4859314 85.69866943 C90.95358917 84.65197083 91.42124695 83.60527222 91.90307617 82.52685547 C92.32956955 81.60516571 92.75606293 80.68347595 93.19548035 79.7338562 C94.71658186 74.56496717 92.87724622 70.25523339 90.82275391 65.47290039 C90.37203522 64.41482681 89.92131653 63.35675323 89.4569397 62.26661682 C88.96841522 61.13835983 88.47989075 60.01010284 87.9765625 58.84765625 C87.47458344 57.67416122 86.97260437 56.5006662 86.45541382 55.29161072 C85.12307876 52.18023048 83.78509844 49.07140686 82.4442749 45.96368408 C81.0882895 42.81702615 79.73976438 39.66717582 78.390625 36.51757812 C76.40944909 31.89562147 74.42505601 27.27508023 72.43603516 22.65649414 C72.0125177 21.6696463 71.58900024 20.68279846 71.15264893 19.66604614 C70.45162598 18.04459882 69.74247065 16.42659393 69.01873779 14.81515503 C67.16030951 10.65528904 66.47062685 7.58790065 67 3 C68.0625 1.0625 68.0625 1.0625 70 0 C73.4375 -0.4375 73.4375 -0.4375 77 0 C80.43991823 2.79429469 82.00147096 5.69452992 83.69921875 9.7421875 C84.42383301 11.45075928 84.42383301 11.45075928 85.16308594 13.19384766 C85.66614258 14.40862793 86.16919922 15.6234082 86.6875 16.875 C87.21446163 18.12969197 87.74213766 19.38408412 88.27050781 20.63818359 C89.60358309 23.81013071 90.92396815 26.98717979 92.2399292 30.16625977 C93.41606753 33.00380093 94.60181552 35.83733133 95.78515625 38.671875 C96.60799438 40.65574296 97.42967976 42.64008958 98.25 44.625 C98.63244873 45.54780762 99.01489746 46.47061523 99.40893555 47.42138672 C99.75351807 48.26459473 100.09810059 49.10780273 100.453125 49.9765625 C100.90413574 51.07605225 100.90413574 51.07605225 101.36425781 52.19775391 C102 54 102 54 102 56 C102.66 56 103.32 56 104 56 C104.25747765 55.19317024 104.25747765 55.19317024 104.52015686 54.37004089 C106.39988787 48.59316912 108.55042262 42.97593997 110.87109375 37.36328125 C111.23469498 36.48020798 111.5982962 35.5971347 111.97291565 34.68730164 C112.73689737 32.83537274 113.50253935 30.98412795 114.26977539 29.13354492 C115.43747801 26.31255312 116.59488404 23.48747643 117.75195312 20.66210938 C118.49937407 18.85390781 119.24740028 17.04595629 119.99609375 15.23828125 C120.50879066 13.98184563 120.50879066 13.98184563 121.03184509 12.70002747 C122.9557387 8.09161478 124.96780145 3.98350747 128 0 C130.97576793 -1.01096147 132.7829857 -0.45957347 136 0 C138 1.0625 138 1.0625 139 3 C139.65099011 9.42018127 137.68393429 14.03657203 135.125 19.859375 C134.72224854 20.80323059 134.31949707 21.74708618 133.90454102 22.71954346 C132.61477385 25.73489889 131.3078597 28.74245414 130 31.75 C129.15117477 33.72475835 128.30350794 35.70001506 127.45703125 37.67578125 C120.58932934 53.68205384 120.58932934 53.68205384 117.5546875 60.51367188 C116.80714223 62.22259089 116.05973905 63.93157207 115.3125 65.640625 C114.78547485 66.80256378 114.78547485 66.80256378 114.24780273 67.98797607 C111.67021312 73.93473911 112.17169894 76.93900261 114.49951172 82.90283203 C115.13825098 84.43976741 115.78196223 85.97464253 116.4296875 87.5078125 C116.77625397 88.33871902 117.12282043 89.16962555 117.47988892 90.02571106 C118.60751847 92.72719731 119.74129086 95.42606025 120.875 98.125 C122.03827571 100.90817205 123.19987269 103.69204037 124.36126709 106.47599792 C125.13604748 108.33314542 125.91131609 110.19008932 126.68707275 112.04682922 C130.47082483 121.10876707 134.17725828 130.20096876 137.86279297 139.30322266 C138.26900879 140.30530762 138.67522461 141.30739258 139.09375 142.33984375 C139.44115234 143.19956787 139.78855469 144.05929199 140.14648438 144.94506836 C140.71654334 146.31754729 141.33536993 147.67073986 142 149 C142.41024414 148.00935547 142.82048828 147.01871094 143.24316406 145.99804688 C153.93611344 120.18020969 164.66653413 94.37815088 175.42146301 68.58607483 C178.04621222 62.29061385 180.6670828 55.99355234 183.28515625 49.6953125 C194.15570798 23.54822872 194.15570798 23.54822872 199.3125 11.4375 C199.66787842 10.59807861 200.02325684 9.75865723 200.3894043 8.89379883 C201.74465086 5.73110384 203.08604761 2.87092859 205 0 C209.06209845 -0.53650357 211.34996127 -0.33856184 215 1.5625 C217 4 217 4 216.83544922 7.12060547 C215.8857286 11.53061735 214.41254531 15.3785768 212.6328125 19.5078125 C212.28669418 20.32920715 211.94057587 21.15060181 211.58396912 21.99688721 C210.43871251 24.70960419 209.28186925 27.41721741 208.125 30.125 C207.31033746 32.04866114 206.49646872 33.97265861 205.68334961 35.89697266 C203.98218462 39.91949119 202.27641515 43.94000991 200.56689453 47.95898438 C198.11573589 53.72329071 195.67851285 59.49338988 193.24609375 65.265625 C190.10671815 72.71387295 186.96392064 80.16065621 183.81640625 87.60546875 C180.11151665 96.36901961 176.40920561 105.13365473 172.70986938 113.89955139 C170.67379591 118.72399562 168.6364572 123.54789492 166.59570312 128.37036133 C163.20349894 136.38913031 159.82055277 144.41058613 156.50390625 152.4609375 C155.99180869 153.69713429 155.47945095 154.93322334 154.96679688 156.16918945 C154.06785046 158.34138282 153.17649134 160.51674137 152.29492188 162.69604492 C151.91013672 163.62263916 151.52535156 164.5492334 151.12890625 165.50390625 C150.80994385 166.28580322 150.49098145 167.0677002 150.16235352 167.87329102 C148.76137541 170.4366013 147.23352361 172.12151854 145 174 C141.5 174.5625 141.5 174.5625 138 174 C134.02425181 170.01245433 132.18000007 165.24856905 130.09375 160.125 C129.73187592 159.25507919 129.37000183 158.38515839 128.99716187 157.48887634 C127.82358766 154.6624304 126.66161718 151.83137848 125.5 149 C124.6961698 147.05643461 123.89164131 145.11315788 123.08642578 143.17016602 C121.47693495 139.28328758 119.87193532 135.39460173 118.27050781 131.50439453 C116.24555322 126.58873463 114.20135426 121.68137905 112.1484375 116.77734375 C111.31595347 114.78441586 110.48389747 112.79131007 109.65209961 110.7980957 C108.88732763 108.96701583 108.12043879 107.13682055 107.35351562 105.30664062 C106.90427734 104.22447266 106.45503906 103.14230469 105.9921875 102.02734375 C105.60401855 101.09656006 105.21584961 100.16577637 104.81591797 99.20678711 C104 97 104 97 104 95 C103.34 95 102.68 95 102 95 C101.83433029 95.52542389 101.66866058 96.05084778 101.49797058 96.5921936 C99.50117565 102.76733506 97.12797928 108.73054972 94.61328125 114.7109375 C94.19257858 115.71855133 93.77187592 116.72616516 93.33842468 117.76431274 C91.99946127 120.96914425 90.65604035 124.17208497 89.3125 127.375 C88.43004838 129.48555579 87.54788463 131.59623196 86.66601562 133.70703125 C84.94051757 137.83690656 83.20775474 141.96363449 81.47119141 146.08886719 C79.85432206 149.9371469 78.26916656 153.79597835 76.71240234 157.66894531 C76.17669868 158.98579819 76.17669868 158.98579819 75.63017273 160.32925415 C74.96755697 161.96028253 74.31393221 163.59500519 73.67121887 165.23397827 C70.9152617 171.96856522 70.9152617 171.96856522 67 174 C64 174.4375 64 174.4375 61 174 C56.62105785 170.67048354 55.063064 166.10948529 53.05078125 161.171875 C52.68119797 160.28808167 52.31161469 159.40428833 51.93083191 158.49371338 C50.71573579 155.58279355 49.51430228 152.66643035 48.3125 149.75 C47.46072603 147.70397271 46.60784659 145.65840532 45.75390625 143.61328125 C44.00634411 139.42661095 42.26285765 135.23827891 40.52197266 131.04882812 C37.23479538 123.15035664 33.88484885 115.27897043 30.52780151 107.41000366 C28.79140859 103.33848475 27.05962485 99.26500797 25.328125 95.19140625 C24.98003281 94.37251419 24.63194061 93.55362213 24.27330017 92.70991516 C19.11039706 80.55876268 13.96924995 68.39833134 8.84643555 56.23022461 C8.06301696 54.36961683 7.27957004 52.50902098 6.49609375 50.6484375 C6.11535202 49.74414505 5.73461029 48.8398526 5.34233093 47.90815735 C3.20943072 42.84854039 1.06006383 37.79649482 -1.11062622 32.75297546 C-2.3558515 29.85816724 -3.59360848 26.96019894 -4.83044434 24.0617981 C-5.39384749 22.74751841 -5.96104234 21.4348565 -6.53234863 20.12399292 C-7.30593709 18.34854638 -8.06545868 16.56699033 -8.82421875 14.78515625 C-9.24791748 13.80426025 -9.67161621 12.82336426 -10.1081543 11.81274414 C-11.09707564 8.69383836 -11.27580795 6.25291983 -11 3 C-7.94698909 -0.66361309 -4.52836922 -0.64690989 0 0 Z " fill="#040404" transform="translate(1128,1047)"/>
<path d="M0 0 C2.09271696 0.00097042 4.18174033 -0.04060365 6.27392578 -0.08496094 C7.61115775 -0.09017002 8.94840241 -0.0928561 10.28564453 -0.09277344 C11.49720215 -0.09986328 12.70875977 -0.10695313 13.95703125 -0.11425781 C18.15412709 0.67445818 19.52218732 2.27498983 22.23095703 5.50097656 C22.74924072 6.08919189 23.26752441 6.67740723 23.80151367 7.28344727 C24.24358154 7.82573975 24.68564941 8.36803223 25.14111328 8.92675781 C25.649729 9.5501001 26.15834473 10.17344238 26.68237305 10.81567383 C27.21403076 11.47494873 27.74568848 12.13422363 28.29345703 12.81347656 C29.14218384 13.86136353 29.14218384 13.86136353 30.00805664 14.93041992 C34.39354221 20.38038522 38.60904109 25.94387041 42.77563477 31.56201172 C46.69309326 36.82958394 50.75646329 41.96405234 54.8762207 47.07421875 C58.41518229 51.46773123 61.88206695 55.90718487 65.31054688 60.38769531 C68.84487685 65.00555266 72.40879307 69.59983122 75.98095703 74.18847656 C76.57376465 74.9500708 77.16657227 75.71166504 77.77734375 76.49633789 C78.99030384 78.05443461 80.20335789 79.6124582 81.41650391 81.17041016 C84.35609041 84.94614922 87.29343418 88.72363191 90.23095703 92.50097656 C91.39761242 94.00098533 92.5642791 95.50098532 93.73095703 97.00097656 C96.06429036 100.00097656 98.3976237 103.00097656 100.73095703 106.00097656 C101.30942383 106.74468506 101.88789062 107.48839355 102.48388672 108.25463867 C103.64092321 109.74232631 104.79782607 111.23011788 105.95458984 112.71801758 C109.01746395 116.65729567 112.08319644 120.59430807 115.15283203 124.52832031 C115.79349609 125.35009766 116.43416016 126.171875 117.09423828 127.01855469 C118.3251583 128.5973434 119.55689151 130.17549854 120.78955078 131.75292969 C121.6190625 132.81737305 121.6190625 132.81737305 122.46533203 133.90332031 C122.95227539 134.527146 123.43921875 135.15097168 123.94091797 135.79370117 C125.09501018 137.32106052 126.16906389 138.90813685 127.23095703 140.50097656 C127.72595703 77.63597656 127.72595703 77.63597656 128.23095703 13.50097656 C122.29095703 13.50097656 116.35095703 13.50097656 110.23095703 13.50097656 C106.23095703 9.50097656 106.23095703 9.50097656 105.79345703 6.43847656 C106.2844708 3.14166984 106.62014102 2.44470891 109.23095703 0.50097656 C111.62158203 0.12002563 111.62158203 0.12002563 114.48095703 0.11279297 C115.55216797 0.10333649 116.62337891 0.09388 117.72705078 0.08413696 C119.46148438 0.093246 119.46148438 0.093246 121.23095703 0.10253906 C122.41818359 0.09966888 123.60541016 0.09679871 124.82861328 0.09384155 C127.34033688 0.0917988 129.85207631 0.09734334 132.36376953 0.10986328 C136.21569275 0.12591296 140.06656658 0.11002069 143.91845703 0.09082031 C146.35595936 0.09280271 148.79346102 0.0966463 151.23095703 0.10253906 C152.38724609 0.09646637 153.54353516 0.09039368 154.73486328 0.08413696 C155.80607422 0.09359344 156.87728516 0.10304993 157.98095703 0.11279297 C159.39634766 0.11637314 159.39634766 0.11637314 160.84033203 0.12002563 C163.23095703 0.50097656 163.23095703 0.50097656 165.03564453 1.83773804 C166.89364614 4.42308694 166.61667763 6.41521177 166.23095703 9.50097656 C164.62032377 11.68371186 163.75944871 12.41827932 161.05444336 12.84155273 C159.8211731 12.81798706 159.8211731 12.81798706 158.56298828 12.79394531 C157.6703125 12.78427734 156.77763672 12.77460937 155.85791016 12.76464844 C154.46475586 12.72694336 154.46475586 12.72694336 153.04345703 12.68847656 C151.63290039 12.66817383 151.63290039 12.66817383 150.19384766 12.64746094 C147.87230665 12.61210752 145.5519205 12.5627633 143.23095703 12.50097656 C143.2346442 13.30219342 143.23833138 14.10341028 143.24213028 14.92890644 C143.33039644 34.40761945 143.39662523 53.88629265 143.43820572 73.36516285 C143.45884725 82.7849374 143.48699814 92.2045786 143.53271484 101.62426758 C143.57253402 109.83270263 143.59837826 118.04104113 143.60731101 126.24957007 C143.61253414 130.59757573 143.6248431 134.94530515 143.65387726 139.29322243 C143.68096884 143.38326093 143.68941484 147.47290864 143.68338776 151.56302834 C143.68449082 153.06630576 143.69248217 154.56959587 143.70777893 156.07279587 C143.72760489 158.12105168 143.72052892 160.16951583 143.7119751 162.21784973 C143.71566227 163.365482 143.71934944 164.51311426 143.72314835 165.69552326 C143.23095703 168.50097656 143.23095703 168.50097656 141.38790512 170.36632824 C138.42482527 171.92503686 136.53371506 171.98137773 133.23095703 171.50097656 C131.09814453 169.87597656 131.09814453 169.87597656 129.10595703 167.50097656 C128.33638672 166.58703125 127.56681641 165.67308594 126.77392578 164.73144531 C123.3832937 160.47614201 120.12439034 156.119918 116.88916016 151.74584961 C113.39254693 147.0186805 109.79826416 142.38920456 106.10595703 137.81347656 C102.05769606 132.79267017 98.07091804 127.73652452 94.15136719 122.61425781 C90.61703721 117.99640046 87.05312099 113.40212191 83.48095703 108.81347656 C82.88814941 108.05188232 82.2953418 107.29028809 81.68457031 106.50561523 C80.47161022 104.94751851 79.25855618 103.38949493 78.04541016 101.83154297 C75.10582365 98.0558039 72.16847988 94.27832121 69.23095703 90.50097656 C68.06430164 89.00096779 66.89763496 87.5009678 65.73095703 86.00097656 C63.3976237 83.00097656 61.06429036 80.00097656 58.73095703 77.00097656 C58.15313477 76.25807373 57.5753125 75.5151709 56.97998047 74.74975586 C55.81652391 73.25385994 54.65311225 71.75792911 53.48974609 70.26196289 C50.52433705 66.4488788 47.55808441 62.63645592 44.59033203 58.82519531 C39.20914232 51.91344935 33.83027158 44.99993948 28.48095703 38.06347656 C27.70236328 37.05414062 26.92376953 36.04480469 26.12158203 35.00488281 C24.76773609 33.2118761 23.47721566 31.37036451 22.23095703 29.50097656 C22.22949047 30.21457997 22.22802391 30.92818338 22.22651291 31.66341114 C22.18948683 49.01426204 22.13052823 66.36489885 22.04705429 83.71558857 C22.00721792 92.10621277 21.97484889 100.49674256 21.95996094 108.88745117 C21.94696814 116.19945225 21.9200646 123.51124599 21.87634397 130.82313031 C21.85367535 134.69599924 21.83804955 138.56861195 21.83907318 142.44155312 C21.83981664 146.08522449 21.82199392 149.7283283 21.7897892 153.37185287 C21.77717789 155.35006015 21.78437868 157.32836244 21.792099 159.30659485 C21.77122978 161.06713196 21.77122978 161.06713196 21.74993896 162.86323547 C21.74440821 164.3966381 21.74440821 164.3966381 21.73876572 165.96101856 C21.23095703 168.50097656 21.23095703 168.50097656 19.41727066 170.32599163 C16.18373929 172.06378011 13.83721733 171.9517591 10.23095703 171.50097656 C7.35412594 169.35602006 6.34549332 168.17519028 5.73876572 164.60371017 C5.74245289 163.47174839 5.74614006 162.33978661 5.74993896 161.17352295 C5.74444031 159.87224457 5.73894165 158.57096619 5.73327637 157.23025513 C5.74743217 155.79021848 5.76197139 154.35018556 5.77685547 152.91015625 C5.77798387 151.39234446 5.77735022 149.87453049 5.77508545 148.35671997 C5.77393709 144.23706238 5.79746581 140.11786999 5.82538128 135.99832058 C5.85037477 131.69285371 5.85273531 127.38737636 5.85748291 123.08184814 C5.86991874 114.92912275 5.90274851 106.77661173 5.94288087 98.62398076 C5.98757972 89.34235365 6.00958086 80.06071633 6.02966261 70.77900839 C6.07148065 51.68620954 6.14184446 32.59361028 6.23095703 13.50097656 C4.4771875 13.57058594 4.4771875 13.57058594 2.68798828 13.64160156 C1.13983683 13.67913251 -0.40834236 13.71553125 -1.95654297 13.75097656 C-2.72546875 13.78449219 -3.49439453 13.81800781 -4.28662109 13.85253906 C-8.27604472 13.92102702 -10.29109195 13.78972575 -13.78857422 11.67675781 C-15.76904297 9.50097656 -15.76904297 9.50097656 -16.26904297 6.43847656 C-14.85435723 -1.87280214 -6.72505967 -0.02204421 0 0 Z " fill="#050505" transform="translate(761.76904296875,1049.4990234375)"/>
<path d="M0 0 C1.16094177 -0.00845947 2.32188354 -0.01691895 3.51800537 -0.02563477 C5.4303598 -0.01652573 5.4303598 -0.01652573 7.38134766 -0.00723267 C8.73651554 -0.01129741 10.09168011 -0.01663875 11.44683838 -0.02316284 C15.12864538 -0.03685399 18.81020055 -0.03153052 22.49201202 -0.02202559 C26.34233791 -0.01443824 30.19264203 -0.02147202 34.04296875 -0.02618408 C40.50931679 -0.03164435 46.97556209 -0.02444297 53.44189453 -0.01016235 C60.92132742 0.00616474 68.400515 0.00087642 75.87994194 -0.01564157 C82.29785197 -0.02924877 88.71568808 -0.03117987 95.13360786 -0.02332556 C98.96840563 -0.0186448 102.80308803 -0.01803517 106.63787842 -0.02793503 C110.24289197 -0.03659136 113.84758878 -0.03060759 117.45256805 -0.01325226 C119.40931257 -0.00738312 121.36608382 -0.01631435 123.32281494 -0.02563477 C124.48375671 -0.01717529 125.64469849 -0.00871582 126.84082031 0 C128.35731674 0.00169662 128.35731674 0.00169662 129.90444946 0.00342751 C132.42041016 0.38095093 132.42041016 0.38095093 134.24388123 1.7267971 C137.14765109 5.80938436 135.88426181 12.51526328 135.85791016 17.31845093 C135.87789062 18.6068689 135.89787109 19.89528687 135.91845703 21.2227478 C135.91749023 23.07803101 135.91749023 23.07803101 135.91650391 24.97079468 C135.91835693 26.10380005 135.92020996 27.23680542 135.92211914 28.40414429 C135.31579395 32.00167375 134.26337331 33.16975736 131.42041016 35.38095093 C128.51256134 36.08977396 126.47787115 35.72066882 123.42041016 35.38095093 C122.43041016 34.39095093 121.44041016 33.40095093 120.42041016 32.38095093 C120.42041016 26.11095093 120.42041016 19.84095093 120.42041016 13.38095093 C90.39041016 13.38095093 60.36041016 13.38095093 29.42041016 13.38095093 C29.42041016 34.50095093 29.42041016 55.62095093 29.42041016 77.38095093 C55.16041016 77.38095093 80.90041016 77.38095093 107.42041016 77.38095093 C107.42041016 73.09095093 107.42041016 68.80095093 107.42041016 64.38095093 C111.42041016 60.38095093 111.42041016 60.38095093 114.42041016 59.94345093 C117.91158182 60.45258013 119.05827201 60.76385184 121.42041016 63.38095093 C122.03891179 66.42532193 121.98042425 69.43969482 121.95166016 72.53720093 C121.95548706 73.43587891 121.95931396 74.33455688 121.96325684 75.26046753 C121.96597837 77.16017782 121.9586003 79.05992543 121.94189453 80.95956421 C121.9204877 83.87040607 121.94168736 86.77877975 121.96728516 89.68954468 C121.96464192 91.53460222 121.95951703 93.37965822 121.95166016 95.22470093 C121.95975708 96.09663086 121.967854 96.96856079 121.97619629 97.86691284 C121.88288169 103.86856183 121.88288169 103.86856183 119.57470703 106.4258728 C116.60698683 107.74157106 114.63204241 107.84931397 111.42041016 107.38095093 C110.10041016 106.06095093 108.78041016 104.74095093 107.42041016 103.38095093 C107.42041016 99.09095093 107.42041016 94.80095093 107.42041016 90.38095093 C81.68041016 90.38095093 55.94041016 90.38095093 29.42041016 90.38095093 C29.42041016 111.83095093 29.42041016 133.28095093 29.42041016 155.38095093 C36.65333984 155.33454468 43.88626953 155.28813843 51.33837891 155.24032593 C55.91847137 155.21988964 60.49850768 155.20063399 65.07861328 155.18563843 C72.34964664 155.16171989 79.62047866 155.13341331 86.89135742 155.07919312 C92.75280782 155.03575643 98.61404233 155.01181809 104.47564125 155.00144196 C106.71278596 154.99404674 108.94991876 154.97960577 111.18697166 154.9580307 C114.31867452 154.92902636 117.44948343 154.92499378 120.58129883 154.92684937 C121.50774704 154.91246826 122.43419525 154.89808716 123.38871765 154.88327026 C127.58879526 154.91022802 129.8406871 155.02855082 133.50019836 157.25308228 C135.42041016 159.38095093 135.42041016 159.38095093 135.98291016 161.88095093 C135.1977624 165.3704965 134.36772341 166.29097543 131.42041016 168.38095093 C127.80283283 168.99138633 124.21008738 168.91646918 120.54907227 168.88265991 C119.44139999 168.8880629 118.33372772 168.89346588 117.19248962 168.89903259 C113.52730682 168.91155073 109.86290469 168.89500846 106.19775391 168.87704468 C103.65474913 168.87719958 101.11174412 168.87868713 98.56874084 168.88145447 C93.23817623 168.88283982 87.90788785 168.87068961 82.57739258 168.84750366 C76.41405199 168.82088074 70.25108777 168.81915142 64.08770937 168.83089203 C58.15777933 168.84166879 52.22796421 168.8353837 46.29803658 168.82133675 C43.77458658 168.81681182 41.25112551 168.81649449 38.72767448 168.82040215 C35.20566762 168.82330311 31.68428201 168.80686047 28.16235352 168.78500366 C27.11343933 168.78950531 26.06452515 168.79400696 24.98382568 168.79864502 C24.02626877 168.78874039 23.06871185 168.77883575 22.08213806 168.76863098 C21.24942351 168.76620109 20.41670897 168.76377119 19.55876064 168.76126766 C17.42041016 168.38095093 17.42041016 168.38095093 15.65159988 167.24229813 C13.8601807 164.53398031 14.05170525 162.44384594 14.05964661 159.2117157 C14.05552261 157.92022614 14.05139862 156.62873657 14.04714966 155.29811096 C14.05776716 153.86388952 14.06867159 152.42967018 14.07983398 150.99545288 C14.08068005 149.48764055 14.08020551 147.97982699 14.07850647 146.47201538 C14.0776443 142.37510838 14.09530579 138.27846387 14.11622834 134.18161798 C14.13495828 129.90149271 14.13674267 125.6213617 14.14030457 121.34120178 C14.14963588 113.23452862 14.17426433 105.12797655 14.20435303 97.02135676 C14.23786328 87.79294297 14.25437455 78.56452345 14.26943934 69.33606398 C14.30081296 50.35095759 14.35359453 31.36596399 14.42041016 12.38095093 C13.83026123 12.39666138 13.2401123 12.41237183 12.63208008 12.42855835 C9.9574543 12.49093032 7.28298151 12.5299475 4.60791016 12.56845093 C3.67914062 12.59358765 2.75037109 12.61872437 1.79345703 12.6446228 C0.45444336 12.65912476 0.45444336 12.65912476 -0.91162109 12.67391968 C-1.73380127 12.68963013 -2.55598145 12.70534058 -3.40307617 12.7215271 C-6.10808152 12.29825369 -6.96895659 11.56368623 -8.57958984 9.38095093 C-9.216786 4.28338166 -9.216786 4.28338166 -7.40487671 1.71726036 C-4.87050258 -0.13817843 -3.12663336 0.00349799 0 0 Z " fill="#040404" transform="translate(1597.57958984375,1049.6190490722656)"/>
<path d="M0 0 C1.16238693 -0.00701431 2.32477386 -0.01402863 3.52238464 -0.02125549 C4.79885864 -0.01361176 6.07533264 -0.00596802 7.39048767 0.00190735 C8.7472766 -0.00052039 10.10406375 -0.00423955 11.46084595 -0.00915527 C15.14673078 -0.01856953 18.83235033 -0.009135 22.51821446 0.00417686 C26.37167104 0.01548122 30.22511437 0.01138469 34.07858276 0.00942993 C40.5491317 0.00854674 47.01957592 0.01963345 53.49009705 0.03804016 C60.97746175 0.05921714 68.46467312 0.06271593 75.95206171 0.0564782 C83.14793685 0.05078965 90.34375784 0.0564236 97.53962517 0.06765175 C100.60538672 0.07230359 103.67111522 0.07316908 106.73687935 0.0710659 C110.34429927 0.06918646 113.95156243 0.07726016 117.55894661 0.0931263 C119.51945635 0.09941347 121.47998984 0.09585528 123.44050598 0.09205627 C125.17985664 0.10268349 125.17985664 0.10268349 126.9543457 0.11352539 C127.96626512 0.11557826 128.97818453 0.11763113 130.02076817 0.11974621 C132.41368103 0.3742218 132.41368103 0.3742218 134.41368103 2.3742218 C134.83528097 6.63096405 134.78527579 10.90246605 134.7842865 15.1776886 C134.78865825 17.30065713 134.82496541 19.42154348 134.86289978 21.54414368 C134.86876836 22.89244386 134.87273748 24.24075391 134.87461853 25.58906555 C134.8828363 26.81746155 134.89105408 28.04585754 134.89952087 29.31147766 C134.41368103 32.3742218 134.41368103 32.3742218 132.60362244 34.27095032 C129.35895292 35.90558371 126.9882982 35.82104895 123.41368103 35.3742218 C121.43368103 33.3942218 121.43368103 33.3942218 119.41368103 31.3742218 C119.41368103 25.1042218 119.41368103 18.8342218 119.41368103 12.3742218 C89.38368103 12.3742218 59.35368103 12.3742218 28.41368103 12.3742218 C28.41368103 33.8242218 28.41368103 55.2742218 28.41368103 77.3742218 C54.48368103 77.3742218 80.55368103 77.3742218 107.41368103 77.3742218 C107.41368103 72.7542218 107.41368103 68.1342218 107.41368103 63.3742218 C111.41368103 60.3742218 111.41368103 60.3742218 114.97618103 60.4992218 C118.41362066 61.37420644 119.32827686 61.69048324 121.41368103 64.3742218 C121.72432992 67.33974553 121.85783174 70.09083909 121.84727478 73.05781555 C121.85251663 73.90972977 121.85775848 74.76164398 121.86315918 75.63937378 C121.86958107 77.44070852 121.8682402 79.24208519 121.85972595 81.04341125 C121.85122239 83.79832269 121.87996272 86.55115627 121.91172791 89.30586243 C121.91334019 91.05651285 121.91276186 92.80716694 121.90977478 94.55781555 C121.92100876 95.38083664 121.93224274 96.20385773 121.94381714 97.05181885 C121.89760272 100.84921526 121.85933548 102.76413969 119.57017517 105.89790344 C116.63861922 107.90482282 114.89826408 107.88239016 111.41368103 107.3742218 C110.09368103 106.3842218 108.77368103 105.3942218 107.41368103 104.3742218 C107.41368103 99.7542218 107.41368103 95.1342218 107.41368103 90.3742218 C81.34368103 90.3742218 55.27368103 90.3742218 28.41368103 90.3742218 C28.41368103 111.8242218 28.41368103 133.2742218 28.41368103 155.3742218 C39.26307556 155.32201477 39.26307556 155.32201477 50.33164978 155.26875305 C54.91173597 155.25342586 59.49179057 155.23898407 64.07188416 155.22773743 C71.34286561 155.20979865 78.61373381 155.18856867 85.8846283 155.14790344 C91.74606887 155.11532598 97.60738801 155.09737207 103.46891212 155.08959007 C105.70604171 155.0840437 107.9431646 155.07321312 110.18024254 155.05703163 C113.31183146 155.03527917 116.44291748 155.03225401 119.5745697 155.03364563 C120.50101791 155.0228598 121.42746613 155.01207397 122.38198853 155.0009613 C127.13164246 155.02382517 130.67746993 155.07141749 134.41368103 158.3742218 C134.97618103 161.8742218 134.97618103 161.8742218 134.41368103 165.3742218 C131.57610267 168.14421959 129.53371355 168.75050114 125.62496948 168.76190186 C124.66459274 168.77180649 123.704216 168.78171112 122.71473694 168.79191589 C121.66784698 168.78741425 120.62095703 168.7829126 119.54234314 168.77827454 C118.43467087 168.78513779 117.3269986 168.79200104 116.1857605 168.79907227 C112.5207186 168.81738924 108.85610267 168.81349629 105.19102478 168.80781555 C102.648019 168.81237434 100.10501446 168.817679 97.56201172 168.82369995 C92.2315055 168.83264024 86.90115505 168.83042984 81.57066345 168.82026672 C75.40727176 168.80877536 69.24431468 168.8228786 63.08098024 168.8496632 C57.15106219 168.87446906 51.22127957 168.87700263 45.29130745 168.87054634 C42.76784606 168.87039259 40.2443765 168.87648126 37.72094536 168.88883781 C34.19883899 168.90365628 30.67769974 168.89313793 27.15562439 168.87593079 C25.58225311 168.89043274 25.58225311 168.89043274 23.97709656 168.90522766 C23.01953964 168.89539352 22.06198273 168.88555939 21.07540894 168.87542725 C20.24269439 168.87521796 19.40997984 168.87500868 18.55203152 168.87479305 C16.41368103 168.3742218 16.41368103 168.3742218 14.64487076 166.73124409 C13.06400353 163.70478991 13.04441406 161.57336639 13.05291748 158.16065979 C13.04879349 156.88462387 13.04466949 155.60858795 13.04042053 154.29388428 C13.05103732 152.88218477 13.06194173 151.47048741 13.07310486 150.05879211 C13.07395118 148.57053647 13.07347589 147.08227957 13.07177734 145.59402466 C13.07091617 141.55502446 13.08856166 137.51629122 13.10949922 133.4773531 C13.12824562 129.25595768 13.13001485 125.03455623 13.13357544 120.81312561 C13.1429019 112.81981594 13.1675238 104.82662928 13.19762391 96.83337379 C13.23114923 87.73310876 13.24764922 78.63283789 13.26271021 69.53252649 C13.29407284 50.81302184 13.34684501 32.09363171 13.41368103 13.3742218 C11.53422791 13.42642883 11.53422791 13.42642883 9.61680603 13.47969055 C7.96577779 13.50783308 6.31473502 13.53513274 4.66368103 13.5617218 C3.42618103 13.59942688 3.42618103 13.59942688 2.16368103 13.63789368 C-3.92093736 13.71149793 -3.92093736 13.71149793 -7.13710022 12.08125305 C-8.58631897 10.3742218 -8.58631897 10.3742218 -9.02381897 6.8742218 C-8.58631897 3.3742218 -8.58631897 3.3742218 -7.40812016 1.67886066 C-4.8715269 -0.13765926 -3.10658907 -0.00051477 0 0 Z " fill="#030303" transform="translate(593.5863189697266,1049.6257781982422)"/>
<path d="M0 0 C0.85909973 -0.00686325 1.71819946 -0.0137265 2.60333252 -0.02079773 C5.45504141 -0.03915068 8.30620341 -0.03521002 11.15795898 -0.02954102 C13.15079425 -0.03410472 15.14362794 -0.03941086 17.13645935 -0.04542542 C21.32720292 -0.05437758 25.51775626 -0.05191646 29.70849609 -0.04199219 C35.03053298 -0.03060697 40.35189599 -0.05054091 45.67384434 -0.07990932 C49.79994267 -0.09844984 53.92588566 -0.09794193 58.0520153 -0.0922718 C60.01044586 -0.09212018 61.96888806 -0.09803051 63.92727852 -0.11056328 C90.16306686 -0.25457117 111.82931157 5.29547112 131.40405273 23.77905273 C147.686148 40.76650953 153.23807516 62.85989464 152.92358398 85.71411133 C152.25492914 110.56976321 145.48941417 131.8391308 127.35327148 149.59545898 C118.20749241 157.45006925 106.23933876 163.32254543 94.59155273 166.40405273 C93.59097084 166.66915146 93.59097084 166.66915146 92.57017517 166.93960571 C84.57232758 168.78638093 76.56822543 168.73196729 68.40795898 168.73999023 C66.86001974 168.74642864 65.31208168 168.75315776 63.7641449 168.76016235 C60.54097668 168.77206213 57.31791516 168.77584994 54.09472656 168.7746582 C49.96301353 168.77445354 45.83197697 168.80193855 41.70042515 168.83620262 C38.51343113 168.85839997 35.32660314 168.86249824 32.13953972 168.86143875 C30.61527069 168.86379848 29.09099734 168.87264302 27.56680489 168.88810349 C25.4437826 168.90765268 23.32226408 168.90197509 21.19921875 168.88989258 C19.99250015 168.89274261 18.78578156 168.89559265 17.54249573 168.89852905 C14.59155273 168.40405273 14.59155273 168.40405273 12.92966652 166.76149559 C11.20755389 163.72753678 11.22211014 161.67367966 11.23078918 158.19049072 C11.22666519 156.9144548 11.2225412 155.63841888 11.21829224 154.32371521 C11.22890902 152.9120157 11.23981344 151.50031834 11.25097656 150.08862305 C11.25182289 148.6003674 11.25134759 147.11211051 11.24964905 145.62385559 C11.24878787 141.58485539 11.26643337 137.54612216 11.28737092 133.50718403 C11.30611732 129.28578861 11.30788655 125.06438716 11.31144714 120.84295654 C11.3207736 112.84964687 11.3453955 104.85646021 11.37549561 96.86320472 C11.40902093 87.7629397 11.42552093 78.66266882 11.44058192 69.56235743 C11.47194454 50.84285278 11.52471671 32.12346264 11.59155273 13.40405273 C10.75962402 13.43547363 10.75962402 13.43547363 9.91088867 13.4675293 C7.38796251 13.55088821 4.86532625 13.60277141 2.34155273 13.65405273 C1.03250977 13.70432617 1.03250977 13.70432617 -0.30297852 13.75561523 C-6.77106782 13.85436469 -6.77106782 13.85436469 -9.99047852 11.57983398 C-11.90337615 8.6446164 -11.92020116 6.84011457 -11.40844727 3.40405273 C-8.85909996 -0.81597033 -4.38622918 -0.02432124 0 0 Z M26.59155273 13.40405273 C26.59155273 60.26405273 26.59155273 107.12405273 26.59155273 155.40405273 C77.32786655 158.52070594 77.32786655 158.52070594 120.19311523 137.05639648 C133.23897475 122.62946064 138.00576323 104.20192232 137.90405273 85.15405273 C137.89913818 84.06012207 137.89422363 82.96619141 137.88916016 81.83911133 C137.60905568 62.409916 131.91989537 44.84398401 118.21655273 30.59155273 C92.67376277 6.54624627 60.83545251 13.40405273 26.59155273 13.40405273 Z " fill="#030303" transform="translate(950.408447265625,1049.595947265625)"/>
<path d="M0 0 C0.76707275 0.00370605 1.53414551 0.00741211 2.32446289 0.01123047 C21.99870912 0.14616762 44.13293886 1.82154162 60.76513672 13.64819336 C63.5843739 17.53644878 62.53807617 23.26556903 62.50854492 27.88916016 C62.50002697 29.93103571 62.52880834 31.97011915 62.56054688 34.01171875 C62.55958008 35.93951172 62.55958008 35.93951172 62.55859375 37.90625 C62.56044678 39.08638672 62.5622998 40.26652344 62.56420898 41.48242188 C62.0625 44.4375 62.0625 44.4375 60.25024414 46.31835938 C57.00879352 47.9765236 54.64342036 47.88511505 51.0625 47.4375 C48.859375 46.11328125 48.859375 46.11328125 47.0625 43.4375 C46.56487382 39.6772738 46.68763338 35.97191898 46.8125 32.1875 C46.83054687 31.15625 46.84859375 30.125 46.8671875 29.0625 C46.91427288 26.51988936 46.9800195 23.97916838 47.0625 21.4375 C46.30130859 21.29111084 45.54011719 21.14472168 44.75585938 20.99389648 C40.49422613 20.11352464 36.37600115 18.74994253 32.21875 17.47265625 C22.11985007 14.75631112 11.97389447 14.11561465 1.5625 14.1875 C-0.11779297 14.17589844 -0.11779297 14.17589844 -1.83203125 14.1640625 C-11.90753174 14.18730472 -22.23451606 14.75064346 -31.5625 18.875 C-32.52414062 19.28621094 -33.48578125 19.69742187 -34.4765625 20.12109375 C-36.78477889 21.35580633 -38.14750787 22.57699302 -39.9375 24.4375 C-40.5975 24.4375 -41.2575 24.4375 -41.9375 24.4375 C-42.62524405 25.76008472 -43.28461373 27.09736503 -43.9375 28.4375 C-44.47375 29.38625 -45.01 30.335 -45.5625 31.3125 C-48.18087192 37.52945486 -48.22032745 45.72229842 -46.03515625 52.05078125 C-45.08869274 53.89318531 -44.02305822 55.6734679 -42.9375 57.4375 C-42.9375 58.0975 -42.9375 58.7575 -42.9375 59.4375 C-42.41542969 59.69660156 -41.89335938 59.95570312 -41.35546875 60.22265625 C-39.4978322 61.15597607 -37.64763629 62.10411699 -35.80078125 63.05859375 C-34.62902344 63.65800781 -33.45726562 64.25742188 -32.25 64.875 C-30.51169922 65.77025391 -30.51169922 65.77025391 -28.73828125 66.68359375 C-21.81725114 70.02422034 -14.51082521 71.8892159 -7.01171875 73.41796875 C-5.31966362 73.77571287 -3.62785872 74.13464213 -1.9362793 74.49462891 C-0.63296158 74.77080048 -0.63296158 74.77080048 0.69668579 75.05255127 C15.66521152 78.25184489 30.34018164 81.41479255 44.0625 88.4375 C45.16464844 88.98792969 46.26679687 89.53835938 47.40234375 90.10546875 C57.78752643 95.97414245 64.04854504 106.04708252 67.63671875 117.2265625 C70.03750463 129.69302865 67.64313492 141.51767177 60.875 152.25 C49.91700026 165.9559811 32.06902367 171.97359606 15.20483398 173.86889648 C-9.91513691 176.27351091 -44.40543173 176.28490011 -65.51220703 160.24047852 C-68.65333699 156.26698678 -67.40258236 149.84195764 -67.375 145 C-67.39498047 143.75927734 -67.41496094 142.51855469 -67.43554688 141.24023438 C-67.43490234 140.04849609 -67.43425781 138.85675781 -67.43359375 137.62890625 C-67.43544678 136.53779541 -67.4372998 135.44668457 -67.43920898 134.32250977 C-66.8251433 130.79140795 -65.72163202 129.62109481 -62.9375 127.4375 C-60.02965119 126.72867697 -57.994961 127.09778211 -54.9375 127.4375 C-52.61839359 129.07220412 -52.01942024 129.99033853 -51.50512695 132.79760742 C-51.47894287 133.70357666 -51.45275879 134.6095459 -51.42578125 135.54296875 C-51.39033203 136.52587891 -51.35488281 137.50878906 -51.31835938 138.52148438 C-51.29580078 139.54564453 -51.27324219 140.56980469 -51.25 141.625 C-51.19875977 143.17864258 -51.19875977 143.17864258 -51.14648438 144.76367188 C-51.06397358 147.3215066 -50.99483428 149.87899723 -50.9375 152.4375 C-41.93926016 155.97204099 -33.59425511 158.37821309 -23.9375 159.4375 C-23.07125 159.54835938 -22.205 159.65921875 -21.3125 159.7734375 C-0.97099308 162.06805871 23.1753419 162.09788265 40.921875 150.58203125 C46.16143099 146.29278689 48.85426188 141.77304033 51.0625 135.4375 C51.3925 134.7775 51.7225 134.1175 52.0625 133.4375 C52.83098946 123.96438954 52.05332683 115.89898754 46.125 108.25 C34.4858236 96.05542721 13.5500772 92.59994378 -2.25 89.5 C-47.28419036 80.64062391 -47.28419036 80.64062391 -58.50390625 64.1328125 C-64.39572479 53.89346974 -64.70411921 41.18916091 -62.1015625 29.76953125 C-57.92668106 18.94005692 -50.36441133 11.35645512 -39.9375 6.4375 C-36.65028207 5.17071845 -33.3500827 4.29666368 -29.9375 3.4375 C-29.02838867 3.18371582 -28.11927734 2.92993164 -27.18261719 2.66845703 C-18.07808922 0.29265659 -9.33337338 -0.08081717 0 0 Z " fill="#050505" transform="translate(1502.9375,1046.5625)"/>
<path d="M0 0 C2.30805975 0.01605184 4.61435682 0.00007197 6.92236328 -0.01904297 C25.75004828 -0.04522176 47.60042547 3.05681537 63.06640625 14.60400391 C66.14703847 18.60652926 64.95190921 24.99402856 64.94189453 29.82861328 C64.97025391 31.06933594 64.99861328 32.31005859 65.02783203 33.58837891 C65.03041016 34.78011719 65.03298828 35.97185547 65.03564453 37.19970703 C65.04273438 38.29081787 65.04982422 39.38192871 65.05712891 40.50610352 C64.44189453 43.39111328 64.44189453 43.39111328 62.09619141 45.75073242 C58.8661481 47.74693008 57.17753691 47.94748555 53.44189453 47.39111328 C51.29638672 46.18286133 51.29638672 46.18286133 49.44189453 44.39111328 C48.89599609 42.03100586 48.89599609 42.03100586 48.83251953 39.28564453 C48.78417969 37.8112793 48.78417969 37.8112793 48.73486328 36.30712891 C48.72068359 35.28296875 48.70650391 34.25880859 48.69189453 33.20361328 C48.66224609 32.16785156 48.63259766 31.13208984 48.60205078 30.06494141 C48.53132208 27.50692016 48.47864196 24.9498117 48.44189453 22.39111328 C45.88446047 21.41714438 43.32213431 20.46223848 40.75439453 19.51611328 C40.0525 19.24669922 39.35060547 18.97728516 38.62744141 18.69970703 C27.05648653 14.48273681 15.20976475 14.0485063 3.00439453 14.07861328 C1.05049805 14.05444336 1.05049805 14.05444336 -0.94287109 14.02978516 C-13.67235051 14.02344893 -28.41867523 15.16758496 -38.39794922 24.02392578 C-44.24640512 30.4014596 -46.15919525 36.81312054 -45.90185547 45.39111328 C-45.19608692 51.55054789 -43.0143627 56.36132879 -38.49560547 60.64111328 C-25.71908827 70.40506221 -8.10070117 73.12586022 7.25439453 76.26611328 C50.88386874 85.29048876 50.88386874 85.29048876 62.44189453 102.39111328 C69.04870303 114.02547123 71.23802053 124.99621084 68.94580078 138.26220703 C68.26409343 140.42287271 67.44954893 142.36351601 66.44189453 144.39111328 C65.96623047 145.48746094 65.96623047 145.48746094 65.48095703 146.60595703 C60.22739336 157.50430721 50.37660312 163.96869107 39.44189453 168.39111328 C35.14701791 169.88166001 30.8295248 171.20279675 26.44189453 172.39111328 C25.77931641 172.57931641 25.11673828 172.76751953 24.43408203 172.96142578 C-1.83941421 178.6282583 -39.38932958 175.83991225 -62.55810547 161.39111328 C-65.91667513 158.03254362 -64.85526068 153.61646902 -64.88037109 149.05322266 C-64.8781958 148.38057373 -64.87602051 147.7079248 -64.8737793 147.01489258 C-64.87062243 144.96462714 -64.89406306 142.91580923 -64.91943359 140.86572266 C-64.92007812 139.57601563 -64.92072266 138.28630859 -64.92138672 136.95751953 C-64.92436768 135.77101807 -64.92734863 134.5845166 -64.93041992 133.36206055 C-64.55810547 130.39111328 -64.55810547 130.39111328 -63.28149414 128.50805664 C-60.84558571 126.92932296 -58.43587487 126.97717598 -55.59326172 126.89501953 C-52.34819963 127.68604234 -51.4175493 128.56690258 -49.55810547 131.39111328 C-49.06385398 135.1519562 -49.18323055 138.85644259 -49.30810547 142.64111328 C-49.32615234 143.67236328 -49.34419922 144.70361328 -49.36279297 145.76611328 C-49.40987835 148.30872392 -49.47562497 150.8494449 -49.55810547 153.39111328 C-48.80916016 153.52775391 -48.06021484 153.66439453 -47.28857422 153.80517578 C-44.55810547 154.39111328 -44.55810547 154.39111328 -40.87060547 155.76611328 C-15.84349949 164.04054734 15.48498531 163.67882719 39.44189453 152.39111328 C46.72270144 148.54882699 50.92969058 142.1490647 53.44189453 134.39111328 C54.19651404 126.06397471 54.826053 117.31108088 49.44189453 110.39111328 C37.46049728 96.0799999 15.52764349 92.31739933 -1.87060547 88.95361328 C-44.17267327 80.6267852 -44.17267327 80.6267852 -55.35888672 66.04345703 C-62.08912488 55.6509413 -63.45865707 43.4045077 -60.90576172 31.29736328 C-57.51019842 20.92122136 -51.12977548 13.52093018 -41.55810547 8.39111328 C-28.13625064 1.699251 -14.76604017 -0.12162103 0 0 Z " fill="#040404" transform="translate(329.55810546875,1046.60888671875)"/>
<path d="M0 0 C0.86192459 -0.00563965 1.72384918 -0.0112793 2.6118927 -0.01708984 C3.55989746 -0.01304138 4.50790222 -0.00899292 5.4846344 -0.00482178 C6.48162857 -0.00832642 7.47862274 -0.01183105 8.50582886 -0.01544189 C11.81857674 -0.02427903 15.13111266 -0.01839905 18.44386292 -0.01165771 C20.74635865 -0.01300475 23.04885411 -0.01494561 25.35134888 -0.01745605 C30.18942458 -0.02041078 35.02742662 -0.01610201 39.86549377 -0.0067749 C46.04562288 0.00456237 52.22557719 -0.00190116 58.40569973 -0.01391983 C63.16800226 -0.02117819 67.93026401 -0.0188313 72.69256783 -0.01366425 C74.96937646 -0.01233573 77.24618887 -0.01394731 79.52299309 -0.01862335 C82.72254461 -0.0237475 85.92182184 -0.01589365 89.12135315 -0.00482178 C90.05113983 -0.00887024 90.98092651 -0.0129187 91.93888855 -0.01708984 C107.77468323 0.08356158 122.99886536 4.41356702 134.88526917 15.25396729 C144.50548129 26.03863712 147.0638333 38.43896181 147.07276917 52.44146729 C147.08501526 53.43211182 147.09726135 54.42275635 147.10987854 55.44342041 C147.13869227 70.09039822 143.46663306 84.5663648 132.88526917 95.25396729 C123.33609658 103.07169649 112.84654156 106.05242008 100.88526917 108.25396729 C99.96176666 108.42927475 99.03826416 108.60458221 98.08677673 108.78520203 C94.78281998 109.26896791 91.66719837 109.37408967 88.32911682 109.36749268 C87.04824188 109.36741714 85.76736694 109.36734161 84.44767761 109.36726379 C83.06489523 109.36215834 81.68211325 109.35694236 80.29933167 109.35162354 C78.87301178 109.34975646 77.44669124 109.34833392 76.02037048 109.34733582 C72.28199974 109.34353343 68.54366838 109.3337228 64.80531311 109.32263184 C60.9843143 109.31236853 57.16330907 109.30782769 53.34230042 109.30279541 C45.85660546 109.29209832 38.37094285 109.27504952 30.88526917 109.25396729 C30.90192375 110.33058624 30.90192375 110.33058624 30.91891479 111.42895508 C31.01914951 118.19699036 31.09525051 124.96491455 31.14433002 131.73350143 C31.17041139 135.21330203 31.20577961 138.69248876 31.26246643 142.17193604 C31.32724735 146.17329762 31.35146129 150.17401568 31.37355042 154.17584229 C31.39935684 155.42387634 31.42516327 156.6719104 31.45175171 157.95776367 C31.45212936 159.11866516 31.45250702 160.27956665 31.45289612 161.47564697 C31.4695507 163.00786896 31.4695507 163.00786896 31.48654175 164.57104492 C30.88526917 167.25396729 30.88526917 167.25396729 28.54119873 169.5838623 C25.29621076 171.62437974 23.65221514 171.89514958 19.88526917 171.25396729 C17.04036633 169.09302841 15.99792756 167.91712684 15.39307785 164.3567009 C15.39676502 163.22473911 15.40045219 162.09277733 15.4042511 160.92651367 C15.39875244 159.62523529 15.39325378 158.32395691 15.3875885 156.98324585 C15.4017443 155.5432092 15.41628353 154.10317628 15.4311676 152.66314697 C15.43229601 151.14533518 15.43166235 149.62752121 15.42939758 148.10971069 C15.42824922 143.9900531 15.45177794 139.87086071 15.47969341 135.7513113 C15.50468691 131.44584444 15.50704744 127.14036708 15.51179504 122.83483887 C15.52423087 114.68211347 15.55706065 106.52960245 15.597193 98.37697148 C15.64189186 89.09534437 15.663893 79.81370705 15.68397474 70.53199911 C15.72579279 51.43920026 15.7961566 32.34660101 15.88526917 13.25396729 C14.64390198 13.30037354 13.40253479 13.34677979 12.12355042 13.39459229 C10.48164746 13.4321215 8.8397184 13.46852042 7.19776917 13.50396729 C6.38114807 13.53748291 5.56452698 13.57099854 4.72315979 13.60552979 C0.6299873 13.67181598 -1.58548025 13.56079864 -5.20066833 11.46490479 C-7.11473083 9.25396729 -7.11473083 9.25396729 -7.05223083 5.62896729 C-5.75723187 0.966971 -4.63821838 0.0046583 0 0 Z M30.88526917 13.25396729 C30.88526917 40.64396729 30.88526917 68.03396729 30.88526917 96.25396729 C41.11526917 96.33646729 51.34526917 96.41896729 61.88526917 96.50396729 C65.0808551 96.5403833 68.27644104 96.57679932 71.56886292 96.61431885 C74.15349154 96.62602116 76.73812764 96.6362093 79.32276917 96.64459229 C80.6227887 96.66505615 81.92280823 96.68552002 83.26222229 96.706604 C97.32768515 96.71184449 112.36221105 94.39785647 122.90480042 84.32427979 C132.44360451 73.3596755 132.9498791 59.44766756 132.12159729 45.60015869 C131.62949141 40.71468602 130.20327735 36.55076294 127.88526917 32.25396729 C127.32839417 31.20209229 126.77151917 30.15021729 126.19776917 29.06646729 C118.68117423 19.92466264 110.62522938 14.91475467 98.88526917 13.25396729 C96.57870711 13.16999253 94.27001552 13.13615177 91.96192932 13.14044189 C91.28717749 13.14032136 90.61242565 13.14020082 89.91722679 13.14007664 C87.7528938 13.14081757 85.58864907 13.14840807 83.42433167 13.15631104 C82.08017519 13.157783 80.73601813 13.15880214 79.39186096 13.15936279 C74.43132157 13.1645862 69.47079448 13.17854746 64.51026917 13.19146729 C47.86589417 13.22240479 47.86589417 13.22240479 30.88526917 13.25396729 Z " fill="#040404" transform="translate(424.11473083496094,1049.7460327148438)"/>
<path d="M0 0 C1.09130722 -0.0127597 2.18261444 -0.02551941 3.30699158 -0.03866577 C5.08197777 -0.04200424 5.08197777 -0.04200424 6.89282227 -0.04541016 C8.7090786 -0.05539536 8.7090786 -0.05539536 10.56202698 -0.06558228 C13.12678504 -0.07572288 15.69156957 -0.08039886 18.25634766 -0.08007812 C22.18964916 -0.08445089 26.12182888 -0.12075705 30.05493164 -0.15869141 C32.542558 -0.16455918 35.0301897 -0.16852884 37.51782227 -0.17041016 C39.28977211 -0.19196671 39.28977211 -0.19196671 41.09751892 -0.21395874 C42.1919783 -0.20780548 43.28643768 -0.20165222 44.4140625 -0.1953125 C45.37843735 -0.19816254 46.34281219 -0.20101257 47.33641052 -0.20394897 C49.77172852 0.29052734 49.77172852 0.29052734 51.61048889 2.12948608 C52.77172852 4.29052734 52.77172852 4.29052734 52.70922852 7.35302734 C51.77172852 10.29052734 51.77172852 10.29052734 47.77172852 13.29052734 C41.83172852 13.29052734 35.89172852 13.29052734 29.77172852 13.29052734 C29.77172852 60.15052734 29.77172852 107.01052734 29.77172852 155.29052734 C36.04172852 155.29052734 42.31172852 155.29052734 48.77172852 155.29052734 C52.77172852 159.29052734 52.77172852 159.29052734 53.27172852 161.79052734 C52.60730418 165.11264902 51.37862711 166.16775744 48.77172852 168.29052734 C46.260849 168.79846191 46.260849 168.79846191 43.40820312 168.80810547 C42.33706772 168.82071411 41.26593231 168.83332275 40.16233826 168.84631348 C39.01121048 168.83821655 37.8600827 168.83011963 36.67407227 168.82177734 C35.48826065 168.82560425 34.30244904 168.82943115 33.08070374 168.83337402 C30.5749527 168.83609523 28.06917337 168.82871958 25.56347656 168.81201172 C21.72014335 168.79058819 17.8786757 168.81181823 14.03540039 168.83740234 C11.60245354 168.83475948 9.16950786 168.82963536 6.73657227 168.82177734 C5.00684425 168.83392273 5.00684425 168.83392273 3.24217224 168.84631348 C2.174189 168.83370483 1.10620575 168.82109619 0.00585938 168.80810547 C-0.93471817 168.8049231 -1.87529572 168.80174072 -2.84437561 168.79846191 C-5.22827148 168.29052734 -5.22827148 168.29052734 -7.02806091 166.41442871 C-8.54139266 163.73642584 -8.75875187 162.32184386 -8.22827148 159.29052734 C-6.24827148 157.31052734 -6.24827148 157.31052734 -4.22827148 155.29052734 C2.04172852 155.29052734 8.31172852 155.29052734 14.77172852 155.29052734 C14.77172852 108.10052734 14.77172852 60.91052734 14.77172852 12.29052734 C8.17172852 12.29052734 1.57172852 12.29052734 -5.22827148 12.29052734 C-6.21827148 11.30052734 -7.20827148 10.31052734 -8.22827148 9.29052734 C-7.86985861 2.4806827 -6.91705029 0.05472596 0 0 Z " fill="#020202" transform="translate(1362.228271484375,1049.70947265625)"/>
</svg>
